# xmcd
# 
# Track frame offsets:
#     150
#     6706
#     28838
#     49718
#     94938
#     118563
#     133168
#     151956
#     167946
#     179073
#     193829
#     219282
#     233340
#     252297
#     267446
#     292855
#     313503
# 
# Disc length: 4439
# 
# Revision: 2
# Processed by: cddbd v1.5.2PL0 Copyright (c) Steve Scherf et al.
# Submitted via: fre:ac v1.0.31
# 
DISCID=f6115511
DTITLE=B. B. King - Ladies and Gentlemen...Mr. B.B. King, Disc 3
DYEAR=2012
DGENRE=Blues
TTITLE0=Nobody Loves me But my Mother 1970
TTITLE1=Chains And Things 1970
TTITLE2=Hummingbird 1970
TTITLE3=Worry, Worry 1971
TTITLE4=Ghetto Woman 1971
TTITLE5=Ain't Nobody Home 1971
TTITLE6=Guess Who 1972
TTITLE7=I Like to Live The Love 1973
TTITLE8=Lucille Talks Back 1975
TTITLE9=Don't Make me Pay For His Mistakes 1975
TTITLE10=Let The Good Times Roll 1976
TTITLE11=Mother Fuyer 1977
TTITLE12=When it All Comes Down (I'll Still be Around) 1978
TTITLE13=Better Not Look Down 1979
TTITLE14=There Must be a Better World Somewhere 1981
TTITLE15=Nightlife/Please Send me Someone to Love 1982
TTITLE16=Make Love to me 1983
EXTD=
EXTT0=
EXTT1=
EXTT2=
EXTT3=
EXTT4=
EXTT5=
EXTT6=
EXTT7=
EXTT8=
EXTT9=
EXTT10=
EXTT11=
EXTT12=
EXTT13=
EXTT14=
EXTT15=
EXTT16=
PLAYORDER=
